PathFileType	4	(X/Y/Z)	C:/Users/beibeiliu/ov580/test_trc\sequence.42_training_dense_right.trc
DataRate	CameraRate	NumFrames	NumMarkers	Units	OrigDataRate	OrigDataStartFrame	OrigNumFrames
120	120	23	19	mm	120	32	95
Frame#	Time	ThumbCMC			ThumbMCP			ThumbIP			ThumbTip			IndexMCP			IndexPIP			IndexTip			MiddleMCP			MiddlePIP			MiddleTip			RingMCP			RingPIP			RingTip			PinkyMCP			PinkyPIP			PinkyTip			BackHand1			BackHand2			BackHand3	
		X0	Y0	Z0	X1	Y1	Z1	X2	Y2	Z2	X3	Y3	Z3	X4	Y4	Z4	X5	Y5	Z5	X6	Y6	Z6	X7	Y7	Z7	X8	Y8	Z8	X9	Y9	Z9	X10	Y10	Z10	X11	Y11	Z11	X12	Y12	Z12	X13	Y13	Z13	X14	Y14	Z14	X15	Y15	Z15	X16	Y16	Z16	X17	Y17	Z17	X18	Y18	Z18	
31	0.258333	115.103	30.1462	176.464	103.177	16.792	144.08	105.469	10.1232	119.663	123.258	0.353401	99.948	146.182	49.416	114.29	145.855	47.149	85.7905	150.165	40.3365	61.8314	163.518	38.7892	104.647	162.561	33.0911	79.1258	156.434	27.6572	48.2781	158.024	8.8755	108.023	135.25	-10.7145	110.643	126.733	-4.88339	140.501	164.71	-7.51522	122.721	139.263	-17.3268	130.519	136.328	-2.59048	158.463	175.514	25.4531	161.246	172.414	23.5126	194.476	152.849	42.7465	178.069	
32	0.266667	113.591	34.1242	177.298	104.512	21.3464	141.218	109.526	15.0231	113.859	131.602	4.03705	100.239	148.533	53.2248	114.006	147.017	51.8392	83.4331	151.092	45.705	63.2164	164.459	41.4715	108.01	162.452	38.5602	78.2783	163.346	29.4077	50.1754	161.318	11.3905	109.725	136.69	-6.77869	109.458	130.896	-2.71697	144.031	166.598	-3.226	123.557	141.311	-18.3289	132.57	138.922	1.08683	160.534	179.992	26.5567	163.091	175.228	21.1887	192.211	154.801	45.944	174.854	
33	0.275	112.667	28.2085	175.652	100.756	16.6678	144.782	108.223	9.19951	117.02	132.089	0.0446896	99.6435	144.657	49.1597	108.936	146.374	44.9982	86.3185	153.281	37.5592	63.319	164.385	33.0511	108.816	162.645	31.5799	80.1396	162.118	26.3531	53.4118	160.093	2.78342	108.636	137.113	-15.31	111.575	131.222	-10.7575	143.395	164.179	-10.6541	123.713	139.479	-23.1789	133.705	135.467	-5.94491	165.204	177.39	24.4284	164.072	170.68	20.6278	191.697	147.143	42.8434	178.193	
34	0.283333	109.916	20.857	170.869	100.144	8.1369	139.107	110.047	0.855369	118.007	132.352	-6.9299	98.3019	142.627	39.191	108.701	141.814	39.3985	80.208	149.53	34.4974	61.305	156.943	32.6163	102.288	159.504	27.2311	79.6371	162.716	21.1166	49.1359	159.334	1.53318	108.824	141.072	-20.7675	108.999	129.113	-12.0761	142.665	164.77	-13.7578	124.021	141.55	-28.6021	133.474	132.758	-12.2248	159.345	172.517	19.9597	164.14	164.699	18.5511	193.616	142.335	38.689	172.67	
35	0.291667	108.454	16.7453	169.49	103.467	1.26902	133.861	112.151	-6.98871	110.259	137.222	-12.2819	100.456	139.758	41.6829	101.879	145.533	35.91	81.493	150.856	35.7563	57.9692	160.525	33.287	99.1531	164.106	29.1218	75.5502	170.805	23.3887	49.0518	166.101	1.323	108.129	143.227	-21.4356	106.027	133.81	-17.6315	140.016	167.93	-12.7983	120.41	148.614	-28.5053	127.223	136.152	-15.7022	155.549	169.64	26.977	161.012	163.047	22.0834	193.448	142.098	38.6681	170.556	
36	0.3	108.572	12.0452	161.498	105.091	-8.13295	134.488	118.99	-15.8305	105.251	141.188	-20.636	96.3425	142.504	35.8975	100.689	143.853	34.645	77.013	155.114	30.87	56.4447	157.849	32.4457	97.0307	165.057	27.5429	74.6275	170.385	25.9258	44.0141	166.972	0.743598	105.951	148.764	-25.9953	105.012	135.781	-21.4213	135.032	174.89	-13.6325	122.251	149.546	-33.6544	130.061	136.874	-22.0075	151.573	167.921	24.294	158.206	161.228	23.9738	185.462	137.877	35.9829	169.288	
37	0.308333	107.51	5.83476	164.399	102.628	-14.0457	132.699	118.19	-22.2155	103.868	142.141	-26.0533	95.5823	139.219	32.1468	101.441	145.019	30.5523	77.9922	150.005	31.6194	53.1713	158.998	29.4128	97.479	166.138	24.9168	73.0952	171.678	21.4144	43.9676	166.618	-1.56897	104.605	147.52	-29.1353	104.449	134.115	-25.4024	132.245	172.812	-18.6282	120.431	149.123	-35.7942	130.288	136.9	-19.6693	154.074	168.424	22.2394	158.971	163.719	19.698	185.589	137.37	32.8972	163.427	
38	0.316667	105.812	7.30111	165.206	101.623	-11.3723	132.746	115.915	-18.8918	104.58	137.077	-24.4531	95.532	139.5	35.5917	99.4265	141.966	35.5988	75.9501	150.12	33.169	52.3626	160.368	30.0353	100.2	161.447	29.0467	74.1233	165.528	26.0729	43.1113	161.541	-1.33604	101.627	147.811	-26.8061	101.353	131.895	-23.2075	132.121	170.651	-15.3195	120.053	150.557	-35.1883	127.478	137.933	-20.5947	152.582	167.18	19.7139	158.841	160.668	18.0796	185.447	138.66	33.5187	166.611	
39	0.325	103.833	10.7517	164.335	104.956	-5.80087	129.458	118.096	-12.6662	106.139	137.02	-19.2048	95.6426	137.573	40.6544	105.86	141.264	41.8781	79.8371	148.557	40.0786	54.4251	158.449	36.5067	98.4926	163.815	32.9076	71.8735	167.652	28.352	43.4994	164.047	0.336608	101.023	144.443	-21.8473	101.685	132.56	-17.7992	133.674	167.964	-10.6194	117.799	147.065	-30.7384	127.389	140.164	-14.5934	154.972	171.911	20.3126	158.566	164.46	15.0542	189.094	139.5	36.042	167.849	
40	0.333333	107.433	13.5648	161.939	105.892	-3.51588	131.216	116.993	-9.67453	105.104	140.851	-12.7896	94.6181	140.159	44.7508	105.483	146.124	42.9186	80.5395	153.502	42.4443	53.0932	163.585	36.8001	101.215	163.875	35.7716	76.5616	169.187	33.8945	45.6808	168.171	4.5269	105.087	147.434	-18.6574	101.066	136.457	-18.8798	132.774	173.352	-11.6238	117.341	150.1	-28.9963	127.656	143.876	-14.3243	155.309	171.443	23.3808	158.018	166.408	18.2205	188.695	142.972	33.8015	169.311	
41	0.341667	110.811	12.3937	162.795	105.649	-3.73461	131.321	122.473	-7.44781	105.444	145.988	-11.8285	92.5978	141.44	46.3024	105.096	147.974	45.2033	80.0262	154.113	45.9907	57.5793	164.07	39.7997	98.8745	170.021	36.676	75.6019	175.748	35.3611	46.1368	170.066	4.91471	102.288	151.783	-16.5366	98.978	140.057	-15.9181	134.566	177.856	-9.09529	119.114	150.781	-25.0632	126.609	146.352	-14.9926	153.889	174.42	24.4587	161.373	166.872	17.0348	186.126	140.678	35.6473	170.174	
42	0.35	112.929	13.2249	160.768	109.019	-3.93505	131.227	124.069	-8.95813	103.124	149.195	-12.4334	91.4612	147.54	44.2907	101.772	151.765	43.7903	80.8867	159.309	44.1196	57.0524	168.976	38.6926	99.113	173.255	36.838	78.2105	178.062	35.9748	48.0461	169.898	7.88902	104.356	154.145	-18.1546	100.783	139.468	-17.5248	129.372	180.415	-9.16414	119.431	157.598	-28.6452	124.776	146.042	-14.8419	154.125	174.423	25.9476	161.416	168.06	19.2059	186.633	142.121	37.0196	165.959	
43	0.358333	110.273	12.4754	158.679	112.329	-7.45592	131.222	125.502	-15.5601	106.837	148.533	-19.4519	97.1692	148.488	38.8561	103.357	152.932	39.0305	72.6692	160.977	35.1907	52.8995	167.727	33.3141	101.641	172.329	31.6173	73.2807	178.577	25.3056	47.0617	173.752	4.1326	105.839	154.949	-23.4347	104.11	143.819	-22.9288	133.868	181.64	-12.645	119.963	158.025	-29.3929	126.392	146.425	-18.0967	154.063	173.503	26.5687	160.311	166.658	23.7488	186.29	143.792	35.6319	167.31	
44	0.366667	111.661	4.46443	157.125	108.428	-19.4986	136.713	121.04	-32.7005	114.247	145.061	-38.8625	103.615	141.594	17.8067	91.1621	144.078	9.47081	70.3609	156.5	-2.41609	48.6486	160.757	11.6266	92.1823	167.752	0.0531374	68.5962	170.53	-13.1408	43.4399	168.746	-17.4307	104.912	150.895	-41.7123	111.718	140.202	-32.9824	140.343	174.691	-23.0204	124.422	154.889	-42.0424	136.189	141.071	-24.0334	155.127	171.921	21.4852	150.338	162.653	22.4682	183.973	137.355	31.4864	159.688	
45	0.375	103.778	1.88067	162.722	95.5136	-25.5027	143.174	102.756	-43.5875	121.377	127.079	-54.6555	110.258	127.875	-1.58539	96.3965	123.972	-15.8743	73.0839	129.715	-32.9923	51.2952	142.851	-9.82895	92.0632	141.859	-25.2833	72.501	142.746	-47.7726	49.8913	151.538	-31.8557	110.274	133.134	-56.3137	121.606	125.149	-40.1866	149.021	160.943	-43.3613	127.889	140.303	-52.9728	141.792	132.055	-30.9218	167.156	161.454	9.1829	147.311	163.016	18.1897	179.27	130.923	25.2243	152.67	
46	0.383333	94.7915	11.767	171.018	79.0502	-12.4091	155.853	77.3876	-35.4848	132.726	93.0862	-49.7519	124.489	104.087	-3.99437	101.424	98.5952	-20.9121	82.5246	94.6787	-40.1148	61.3915	118.809	-19.0583	98.3113	107.325	-35.2539	79.1143	97.5174	-55.7244	61.3542	122.982	-40.3245	115.915	100.377	-55.5021	133.386	104.786	-33.7102	158.077	131.143	-54.6795	134.398	111.257	-52.0557	158.503	113.857	-26.1452	170.578	154.194	-7.6139	144.572	160.126	5.87015	172.666	132.172	20.4614	155.625	
47	0.391667	104.649	30.3765	176.107	71.0971	19.8623	160.95	58.4463	1.91369	141.557	68.4041	-21.9493	129.8	96.5113	17.1298	104.739	82.3962	2.70238	84.1987	67.3382	-5.30083	66.9824	101.649	-6.89566	98.0523	81.2346	-14.1024	79.1679	60.7637	-23.2834	61.7001	95.8563	-26.8307	118.67	71.367	-30.6879	141.609	86.9342	-13.2768	162.516	99.0692	-39.9231	136.207	83.3046	-29.8771	157.566	98.7479	-10.1492	175.038	144.469	-10.7882	144.672	155.886	-0.421465	173.436	137.396	24.4826	158.277	
48	0.4	115.761	44.6438	173.513	81.0503	48.1692	162.691	60.5924	34.1582	142.079	55.6109	13.9474	131.991	99.3395	30.932	98.2599	84.6722	33.1985	83.7955	66.0984	24.4098	67.0862	95.8717	10.048	95.84	76.6761	13.4728	78.9499	53.3851	12.7812	60.3236	80.4109	-2.53444	116.637	58.2914	2.05906	137.079	84.3616	9.40239	164.066	81.4899	-19.5187	134.726	68.7421	-7.88131	160.304	92.2818	6.07786	174.718	133.384	-11.7197	143.397	148.543	-10.559	167.04	143.016	22.6411	153.412	
49	0.408333	128.86	42.0141	167.542	96.8103	56.4145	154.791	74.7959	54.1536	141.135	61.5401	33.0385	128.021	110.206	35.0313	98.3982	90.8226	41.0474	77.0431	72.4016	42.1094	59.9797	102.817	20.0572	95.3797	79.1939	23.6333	73.3699	61.2471	31.8413	57.6508	76.5958	8.62652	114.49	61.2054	25.7615	133.164	85.6296	24.012	161.208	76.9835	-3.30784	130.589	66.7306	11.0299	156.056	91.2356	16.7353	172.52	125.516	-14.6668	138.06	140.472	-15.6897	164.577	148.079	12.6473	149.255	
50	0.416667	141.264	35.8798	162.489	113.248	55.5714	151.822	91.7875	54.4978	135.334	72.7875	37.4483	120.525	124.413	28.0484	91.4585	109.38	36.2948	72.3532	92.4658	39.8694	55.5752	109.827	14.3942	87.0516	95.6347	23.441	71.3877	73.8656	29.5925	51.4848	83.488	8.26722	109.622	70.0936	28.7663	127.198	92.1563	23.9454	156.581	78.8721	-0.549038	126.851	74.6522	20.207	146.68	96.3968	13.7382	169.283	125.72	-20.595	133.866	139.567	-27.7466	161.578	151.509	-2.10529	148.51	
51	0.425	153.506	22.702	162.942	126.722	40.9273	143.768	106.244	42.2038	128.418	87.0149	28.3486	113.966	137.741	8.56293	91.3422	124.592	17.4022	71.515	111.668	25.0459	48.9478	123.389	-3.49155	88.4678	110.719	6.9419	67.3652	94.9797	19.0829	42.2451	94.5451	-3.62076	105.711	85.6098	24.6768	121.257	102.578	17.8258	150.445	87.0035	-7.41698	121.529	80.809	11.3886	140.677	108.014	9.417	163.661	130.396	-34.6281	134.719	139.357	-42.7754	165.693	160.493	-17.1658	147.331	
52	0.433333	165.102	8.30138	158.856	140.277	29.2672	138.916	120.702	26.8517	119.061	103.234	17.3499	105.028	152.984	-10.3962	86.5606	146.217	-1.8388	64.1779	130.363	-0.43597	41.9518	138.513	-23.5957	83.72	131.523	-12.7871	63.2663	116.088	-6.66938	37.6729	112.212	-15.1324	98.9309	101.292	9.82114	110.883	116.215	7.70981	142.849	102.016	-21.9198	115.865	96.9995	3.51907	129.869	116.633	2.63416	155.265	138.662	-50.8261	138.768	148.952	-50.9714	171.599	167.49	-32.8797	150.698	
53	0.441667	178.414	-3.11719	159.637	158.072	17.6843	133.823	141.323	15.7486	112.842	122.577	-0.441358	94.6292	177.765	-30.753	92.2957	171.036	-26.8289	69.6301	161.871	-26.1078	45.8678	164.185	-41.437	87.7332	155.963	-36.6051	59.7182	147.655	-32.8603	36.3746	132.119	-32.0868	94.9639	121.762	-5.2644	101.774	136.973	-1.90429	134.372	119.141	-37.0234	111.648	111.457	-9.72236	120.326	129.447	-3.33267	146.163	152.809	-62.6156	145.871	157.381	-59.9278	175.626	183.957	-44.8398	156.157	
